# AST/ASF file generated using VICON BodyLanguage
# -----------------------------------------------
:version 1.10
:name VICON
:units
  mass 1.0
  length 0.45
  angle deg
:documentation
   .ast/.asf automatically generated from VICON data using
   VICON BodyBuilder and BodyLanguage model FoxedUp or BRILLIANT.MOD
:root
   order TX TY TZ RX RY RZ
   axis XYZ
   position 0 0 0  
   orientation 0 0 0 
:bonedata
  begin
     id 1 
     name lhipjoint
     direction 0.671379 -0.66392 0.329334 
     length 2.38647 
     axis 0 0 0  XYZ
  end
  begin
     id 2 
     name lfemur
     direction 0.34202 -0.939693 0  
     length 6.48179  
     axis 0 0 20  XYZ
    dof rx ry rz
    limits (-160.0 20.0)
           (-70.0 70.0)
           (-60.0 70.0)
  end
  begin
     id 3 
     name ltibia
     direction 0.34202 -0.939693 0   
     length 6.86524   
     axis 0 0 20   XYZ
    dof rx
    limits (-10.0 170.0)
  end
  begin
     id 4 
     name lfoot
     direction 0.204886 -0.562919 0.800715   
     length 1.73031   
     axis -90 7.62852e-016 20   XYZ
    dof rx rz
    limits (-45.0 90.0)
           (-70.0 20.0)
  end
  begin
     id 5 
     name ltoes
     direction 1.53548e-011 -4.21841e-011 1   
     length 0.828161   
     axis -90 7.62852e-016 20   XYZ
    dof rx
    limits (-90.0 20.0)
  end
  begin
     id 6 
     name rhipjoint
     direction -0.662732 -0.670855 0.332775   
     length 2.3618  
     axis 0 0 0  XYZ 
  end
  begin
     id 7 
     name rfemur
     direction -0.34202 -0.939693 0   
     length 6.3025   
     axis 0 0 -20   XYZ
    dof rx ry rz
    limits (-160.0 20.0)
           (-70.0 70.0)
           (-70.0 60.0)
  end
  begin
     id 8 
     name rtibia
     direction -0.34202 -0.939693 0   
     length 6.8732   
     axis 0 0 -20   XYZ
    dof rx
    limits (-10.0 170.0)
 end
 begin
     id 9 
     name rfoot
     direction -0.173856 -0.477665 0.861168   
     length 1.54784  
     axis -90 -7.62852e-016 -20   XYZ
    dof rx rz
    limits (-45.0 90.0)
           (-20.0 70.0)
  end
  begin
     id 10 
     name rtoes
     direction -1.53562e-011 -4.21802e-011 1   
     length 0.759618   
     axis -90 -7.62852e-016 -20   XYZ
    dof rx
    limits (-90.0 20.0)
  end
  begin
     id 11 
     name lowerback
     direction -0.0278357 0.999497 -0.0151789   
     length 1.97203   
     axis 0 0 0   XYZ
    dof rx ry rz
    limits (-20.0 45.0)
           (-30.0 30.0)
           (-30.0 30.0)
  end
  begin
     id 12 
     name upperback
     direction -0.00360622 0.997542 0.0699804   
     length 1.94709   
     axis 0 0 0   XYZ
    dof rx ry rz
    limits (-20.0 45.0)
           (-30.0 30.0)
           (-30.0 30.0)
  end
  begin
     id 13 
     name thorax
     direction 0.00907706 0.997048 0.0762461   
     length 1.95722   
     axis 0 0 0   XYZ
    dof rx ry rz
    limits (-20.0 45.0)
           (-30.0 30.0)
           (-30.0 30.0)
  end
  begin
     id 14 
     name lowerneck
     direction -0.0481835 0.99872 -0.0153927   
     length 1.63078   
     axis 0 0 0   XYZ
    dof rx ry rz
    limits (-20.0 45.0)
           (-30.0 30.0)
           (-30.0 30.0)
  end
  begin
     id 15 
     name upperneck
     direction 0.0859716 0.979226 -0.183644   
     length 1.62591   
     axis 0 0 0   XYZ
    dof rx ry rz
    limits (-20.0 45.0)
           (-30.0 30.0)
           (-30.0 30.0)
  end
  begin
     id 16
     name head
     direction 0.0324821 0.997629 -0.0606773  
     length 1.64811  
     axis 0 0 0   XYZ
    dof rx ry rz
    limits (-20.0 45.0)
           (-30.0 30.0)
           (-30.0 30.0)
  end
  begin
     id 17 
     name lclavicle
     direction 0.939609 0.311019 0.142835  
     length 3.70647  
     axis 0 0 0   XYZ
    dof ry rz
    limits (-20.0 10.0)
           (0.0 20.0)
  end
  begin
     id 18 
     name lhumerus
     direction 1 -4.48963e-011 -1.59838e-027   
     length 4.59207   
     axis 180 -30 -90   XYZ
    dof rx ry rz
    limits (-60.0 90.0)
           (-90.0 90.0)
           (-90.0 90.0)
  end
  begin
     id 19
     name lradius
     direction 1 -4.48957e-011 -1.3483e-026   
     length 2.98109   
     axis 180 -30 -90   XYZ
    dof rx
    limits (-10.0 170.0)
  end
  begin
     id 20
     name lwrist
     direction 1 -4.48954e-011 -3.11579e-026   
     length 1.49055   
     axis 2.00652e-014 90 90   XYZ
    dof ry
    limits (-180.0 0.0)
 end
  begin
     id 21 
     name lhand
     direction 1 -4.4911e-011 -6.23158e-026   
     length 0.480203   
     axis 3.97628e-014 90 90   XYZ
    dof rx rz
    limits (-90.0 90.0)
           (-45.0 45.0)
  end
  begin
     id 22 
     name lfingers
     direction 1 -4.48893e-011 -1.24632e-025   
     length 0.387152   
     axis 7.95256e-014 90 90   XYZ
    dof rx
    limits (0.0 90.0)
  end
  begin
     id 23
     name lthumb
     direction 0.707107 -6.35013e-011 0.707107   
     length 0.555875   
     axis -90 45 2.85299e-015   XYZ
    dof rx rz
    limits (-45.0 45.0)
           (-45.0 45.0)
  end
  begin
     id 24 
     name rclavicle
     direction -0.950396 0.30392 0.0661859   
     length 3.70894  
     axis 0 0 0   XYZ 
    dof ry rz
    limits (-10.0 20.0)
           (-20.0 0.0)
  end
  begin
     id 25 
     name rhumerus
     direction -1 -4.48957e-011 -2.96677e-027  
     length 4.76508   
     axis 180 30 90   XYZ
    dof rx ry rz
    limits (-90.0 60.0)
           (-90.0 90.0)
           (-90.0 90.0)
  end
  begin
     id 26 
     name rradius
     direction -1 -4.48974e-011 -1.44501e-026   
     length 2.78902   
     axis 180 30 90   XYZ
    dof rx
    limits (-10.0 170.0)
  end
  begin
     id 27 
     name rwrist
     direction -1 -4.48978e-011 -3.11579e-026   
     length 1.39451   
     axis 2.00652e-014 -90 -90   XYZ
    dof ry
    limits (-180.0 0.0)
  end
  begin
     id 28
     name rhand
     direction -1 -4.48956e-011 -6.23158e-026   
     length 0.721303   
     axis 3.97628e-014 -90 -90   XYZ
    dof rx rz
    limits (-90.0 90.0)
           (-45.0 45.0)
  end
  begin
     id 29
     name rfingers
     direction -1 -4.4899e-011 -1.24632e-025   
     length 0.581533   
     axis 7.95256e-014 -90 -90   XYZ
    dof rx
    limits (0.0 90.0)
  end
  begin
     id 30
     name rthumb
     direction -0.707107 -6.34911e-011 0.707107   
     length 0.834968   
     axis -90 -45 -2.85299e-015   XYZ
    dof rx rz
    limits (-45.0 45.0)
           (-45.0 45.0)
  end
:hierarchy
  begin
    root lhipjoint rhipjoint lowerback
    lhipjoint lfemur
    lfemur ltibia
    ltibia lfoot
    lfoot ltoes
    rhipjoint rfemur
    rfemur rtibia
    rtibia rfoot
    rfoot rtoes
    lowerback upperback
    upperback thorax
    thorax lowerneck lclavicle rclavicle
    lowerneck upperneck
    upperneck head
    lclavicle lhumerus
    lhumerus lradius
    lradius lwrist
    lwrist lhand lthumb
    lhand lfingers
    rclavicle rhumerus
    rhumerus rradius
    rradius rwrist
    rwrist rhand rthumb
    rhand rfingers
  end

#!OML:ASF I:\salsa\salsa 7_09\Patient 1\Session 1\dancerfemale.ASF
:FULLY-SPECIFIED
:DEGREES
639
root 1.51593 15.774 1.56087 -667.799 -77.7727 312.115
lowerback 0.680127 -1.11896 1.48769
upperback -9.31222 -1.63406 0.947834
thorax -10.2604 -0.997002 0.358011
lowerneck 1.19749 -2.98759 -9.21469
upperneck 10.543 -6.36727 20.0391
head 3.77024 -3.0427 7.62089
rclavicle 7.35503e-015 1.66979e-014
rhumerus -14.0234 5.29635 -71.1606
rradius 104.214
rwrist 2.1283
rhand 22.5615 17.7464
rfingers 7.12502
rthumb 46.9134 -4.95785
lclavicle 7.35503e-015 1.66979e-014
lhumerus -32.732 -6.88538 81.3219
lradius 112.679
lwrist -0.238721
lhand -7.73804 28.402
lfingers 7.12502
lthumb 18.1609 57.5742
rfemur -15.9422 -1.48232 34.6861
rtibia 24.1814
rfoot -17.1558 11.7802
rtoes -6.79549
lfemur -38.7089 -2.1885 -7.55336
ltibia 71.1108
lfoot -14.9738 9.33446
ltoes 16.0233
640
root 1.33199 15.7727 1.73359 -652.311 -79.3641 296.65
lowerback 0.947683 -0.664287 1.54976
upperback -9.62216 -1.00927 1.25399
thorax -10.764 -0.694277 0.605821
lowerneck 1.29162 -2.77334 -8.53335
upperneck 10.8794 -6.1037 19.5352
head 3.77968 -2.90391 7.34611
rclavicle 1.5704e-014 -1.19271e-014
rhumerus -13.7526 5.02245 -67.4162
rradius 105.029
rwrist 1.05465
rhand 22.6138 18.0973
rfingers 7.12502
rthumb 46.9618 -4.58569
lclavicle 1.5704e-014 -1.19271e-014
lhumerus -31.2078 -7.41975 80.1156
lradius 112.65
lwrist -0.0528622
lhand -7.67698 28.5172
lfingers 7.12502
lthumb 18.2196 57.6839
rfemur -14.8197 0.248991 34.4882
rtibia 23.7154
rfoot -17.1237 13.0851
rtoes -7.37272
lfemur -38.9821 -5.03987 -4.88558
ltibia 67.8364
lfoot -16.2974 8.97835
ltoes 15.5825
641
root 1.14658 15.7878 1.909 -632.801 -80.1163 277.243
lowerback -0.161184 -0.639336 0.74784
upperback -8.93627 -0.968179 2.2823
thorax -9.2965 -0.557702 2.09915
lowerneck 0.495647 -2.23826 -8.52956
upperneck 10.6244 -5.17683 18.9968
head 3.69497 -2.41628 7.18799
rclavicle 1.8487e-014 -3.73715e-014
rhumerus -10.8704 5.32348 -63.2009
rradius 105.162
rwrist -0.192692
rhand 22.7728 19.3308
rfingers 7.12502
rthumb 47.1089 -3.28732
lclavicle 1.8487e-014 -3.73715e-014
lhumerus -28.1809 -6.06515 78.9663
lradius 112.462
lwrist 0.0639217
lhand -7.84098 28.7462
lfingers 7.12502
lthumb 18.0618 57.9275
rfemur -13.867 1.55891 34.1016
rtibia 23.2462
rfoot -16.8622 14.9843
rtoes -7.42509
lfemur -38.886 -8.28298 -1.98238
ltibia 64.0467
lfoot -17.0459 6.58955
ltoes 14.8334
642
root 0.957672 15.8079 2.08426 -612.079 -79.7298 256.616
lowerback -0.134054 -0.504313 0.799947
upperback -9.069 -0.787279 2.56564
thorax -9.46505 -0.469661 2.36419
lowerneck 0.363268 -1.67169 -8.01997
upperneck 10.9238 -4.42569 18.7022
head 3.68055 -2.02686 7.0314
rclavicle 8.54774e-015 -9.54166e-015
rhumerus -9.86841 5.27322 -60.1422
rradius 105.265
rwrist -1.11401
rhand 22.8936 21.0332
rfingers 7.12502
rthumb 47.2206 -1.53528
lclavicle 8.54774e-015 -9.54166e-015
lhumerus -26.6041 -5.71134 77.1249
lradius 112.67
lwrist 0.621145
lhand -8.55638 29.4808
lfingers 7.12502
lthumb 17.3734 58.7243
rfemur -13.021 2.375 33.5546
rtibia 22.78
rfoot -16.4612 17.5192
rtoes -6.82832
lfemur -38.4937 -11.8134 1.09187
ltibia 59.9416
lfoot -17.9275 2.41878
ltoes 10.5521
643
root 0.770621 15.8125 2.26424 -595.027 -78.2947 239.521
lowerback 0.125699 -0.36159 0.656045
upperback -9.18886 -0.597221 2.84715
thorax -9.7595 -0.358375 2.74183
lowerneck 0.187555 -1.15994 -7.44811
upperneck 11.2486 -3.75772 18.3931
head 3.69907 -1.67371 6.8547
rclavicle -1.37161e-014 2.94201e-014
rhumerus -9.14558 5.00642 -57.0764
rradius 105.42
rwrist -2.05747
rhand 23.1043 21.7479
rfingers 7.12502
rthumb 47.4152 -0.733242
lclavicle -1.37161e-014 2.94201e-014
lhumerus -25.1256 -5.4647 75.41
lradius 112.948
lwrist 1.32353
lhand -9.43922 30.2402
lfingers 7.12502
lthumb 16.5236 59.5567
rfemur -12.1717 3.03628 32.8384
rtibia 22.3973
rfoot -15.93 20.1408
rtoes -5.10872
lfemur -37.8628 -15.8109 4.29828
ltibia 55.7702
lfoot -18.7687 -3.82814
ltoes 7.1577
644
root 0.581265 15.8095 2.44249 -583.217 -76.0517 227.692
lowerback 0.235647 -0.255117 0.64248
upperback -9.19785 -0.451059 3.12156
thorax -9.84234 -0.279725 3.03536
lowerneck -0.136629 -0.687971 -7.03439
upperneck 11.5431 -3.17078 18.3729
head 3.75637 -1.35195 6.79777
rclavicle 1.13307e-014 1.27222e-014
rhumerus -8.43398 4.36461 -54.2073
rradius 105.438
rwrist -2.98495
rhand 22.7961 22.8307
rfingers 7.12502
rthumb 47.1304 0.222149
lclavicle 1.13307e-014 1.27222e-014
lhumerus -23.4934 -5.12447 73.5673
lradius 113.193
lwrist 2.27298
lhand -10.0774 30.5551
lfingers 7.12502
lthumb 15.9092 59.9216
rfemur -11.4299 3.89107 32.2396
rtibia 22.0588
rfoot -15.1972 22.3777
rtoes -3.02589
lfemur -37.3422 -19.4873 7.42722
ltibia 51.8689
lfoot -18.0424 -7.96133
ltoes 4.55964
645
root 0.372514 15.8077 2.6163 -574.146 -73.2827 218.667
lowerback -0.171909 -0.0970531 0.622928
upperback -9.04163 -0.254513 3.30803
thorax -9.43456 -0.183806 3.21704
lowerneck -0.633793 -0.272275 -6.73611
upperneck 11.8239 -2.67471 18.5141
head 3.85729 -1.0657 6.81202
rclavicle 2.127e-014 -1.59028e-015
rhumerus -7.70493 3.318 -51.6311
rradius 105.269
rwrist -3.85495
rhand 22.2793 24.6194
rfingers 7.12502
rthumb 46.6522 1.80147
lclavicle 2.127e-014 -1.59028e-015
lhumerus -21.6358 -4.69284 71.7043
lradius 113.431
lwrist 3.44826
lhand -10.3004 31.0937
lfingers 7.12502
lthumb 15.6944 60.4773
rfemur -10.8114 5.10389 31.5134
rtibia 21.8424
rfoot -14.6326 24.2268
rtoes -2.64518
lfemur -36.3559 -22.0957 9.64733
ltibia 48.5406
lfoot -18.1681 -11.2454
ltoes -5.0956
646
root 0.157349 15.8216 2.7959 -567.178 -70.2348 211.658
lowerback -0.413226 0.0893895 0.531755
upperback -8.97768 -0.0256066 3.43051
thorax -9.23358 -0.068394 3.3768
lowerneck -0.844316 0.0975133 -6.43061
upperneck 12.0704 -2.25138 18.6186
head 3.90828 -0.833864 6.81115
rclavicle -3.10104e-014 -8.3092e-014
rhumerus -7.194 2.34495 -49.298
rradius 104.971
rwrist -5.00031
rhand 22.5026 26.1863
rfingers 7.12502
rthumb 46.8589 3.45821
lclavicle -3.10104e-014 -8.3092e-014
lhumerus -20.0801 -4.31924 69.9513
lradius 113.75
lwrist 4.85154
lhand -10.4486 31.9166
lfingers 7.12502
lthumb 15.5516 61.3113
rfemur -10.2068 6.86671 30.5072
rtibia 21.7593
rfoot -14.3971 25.4844
rtoes -3.70579
lfemur -34.9567 -23.923 10.7595
ltibia 46.0602
lfoot -18.8942 -13.9455
ltoes -13.3349
647
root -0.0524492 15.8255 2.99082 -562.428 -66.9971 206.811
lowerback -0.345486 0.243325 0.607356
upperback -8.96859 0.177101 3.59461
thorax -9.2773 0.024448 3.49719
lowerneck -0.987968 0.405499 -5.83176
upperneck 12.3787 -1.88791 18.3018
head 3.97425 -0.634267 6.61779
rclavicle 3.08116e-015 1.82882e-014
rhumerus -6.77974 1.45412 -47.3241
rradius 104.584
rwrist -5.87843
rhand 23.4746 27.2864
rfingers 7.12502
rthumb 47.7571 4.96104
lclavicle 3.08116e-015 1.82882e-014
lhumerus -19.0805 -3.84739 68.2848
lradius 114.291
lwrist 6.55793
lhand -10.499 32.3444
lfingers 7.12502
lthumb 15.5031 61.7429
rfemur -9.82604 9.07467 29.512
rtibia 22.0015
rfoot -14.3596 26.2249
rtoes -4.28414
lfemur -32.9924 -25.0791 11.3153
ltibia 44.3993
lfoot -19.441 -18.7078
ltoes -21.5074
648
root -0.260843 15.8244 3.19889 -558.393 -63.7565 202.815
lowerback -0.392286 0.323347 0.685133
upperback -8.96348 0.269988 3.67085
thorax -9.24985 0.0578176 3.52892
lowerneck -1.52306 0.716617 -5.28836
upperneck 12.9465 -1.56647 18.0543
head 4.19601 -0.427125 6.46479
rclavicle 1.11319e-014 5.1684e-015
rhumerus -6.41974 0.705093 -45.7708
rradius 104.135
rwrist -6.2839
rhand 24.4155 28.6018
rfingers 7.12502
rthumb 48.624 6.68547
lclavicle 1.11319e-014 5.1684e-015
lhumerus -18.2578 -3.21258 66.6415
lradius 114.872
lwrist 8.51567
lhand -10.3777 32.7764
lfingers 7.12502
lthumb 15.6199 62.1658
rfemur -9.99447 11.1661 28.1965
rtibia 22.6567
rfoot -14.4215 26.9562
rtoes -4.23113
lfemur -30.597 -25.1268 10.8118
ltibia 43.3981
lfoot -19.9458 -21.558
ltoes -27.7559
649
root -0.467033 15.8286 3.41578 -554.442 -60.6445 199.042
lowerback -0.452376 0.305217 0.524455
upperback -9.1407 0.203261 3.61734
thorax -9.40888 0.0235708 3.57429
lowerneck -1.75209 1.11503 -5.40324
upperneck 13.3586 -1.19935 18.6552
head 4.31047 -0.22157 6.70856
rclavicle 5.725e-014 1.92821e-014
rhumerus -6.34869 0.37839 -44.5635
rradius 103.695
rwrist -6.61294
rhand 24.826 30.3919
rfingers 7.12502
rthumb 49.0013 8.66017
lclavicle 5.725e-014 1.92821e-014
lhumerus -17.6129 -2.59998 65.0254
lradius 115.345
lwrist 10.8144
lhand -10.2526 33.4638
lfingers 7.12502
lthumb 15.7404 62.8437
rfemur -10.789 12.7661 26.3273
rtibia 23.663
rfoot -14.4408 27.9342
rtoes -4.80154
lfemur -28.4016 -24.2183 9.11299
ltibia 42.6731
lfoot -20.4017 -23.6412
ltoes -26.0014
650
root -0.673083 15.8352 3.63732 -550.831 -57.6705 195.564
lowerback -0.419278 0.21808 0.0240205
upperback -9.4432 0.0217514 3.55746
thorax -9.76047 -0.0394567 3.81983
lowerneck -1.47822 1.48917 -5.76825
upperneck 13.5077 -0.837358 19.3815
head 4.25169 -0.0630403 7.02965
rclavicle -5.1684e-015 -7.85199e-015
rhumerus -6.56042 0.487549 -43.5295
rradius 103.353
rwrist -7.14479
rhand 24.6947 32.15
rfingers 7.12502
rthumb 48.8807 10.3588
lclavicle -5.1684e-015 -7.85199e-015
lhumerus -17.4141 -2.03498 63.665
lradius 115.79
lwrist 13.3209
lhand -9.70925 34.1641
lfingers 7.12502
lthumb 16.2636 63.502
rfemur -11.8993 13.6914 24.0838
rtibia 24.7834
rfoot -14.2807 29.3905
rtoes -6.72337
lfemur -26.1784 -22.0849 6.2379
ltibia 41.9718
lfoot -21.0451 -24.3947
ltoes -20.2206
651
root -0.877493 15.8658 3.86075 -547.555 -54.8827 192.321
lowerback -0.375256 0.125668 -0.844782
upperback -9.73071 -0.187009 3.49328
thorax -10.1034 -0.0804096 4.27207
lowerneck -1.36224 1.60331 -5.71191
upperneck 13.8218 -0.770858 19.3135
head 4.31507 -0.0432165 7.00578
rclavicle -4.29437e-014 -8.44835e-016
rhumerus -6.99343 0.825894 -42.4646
rradius 103.097
rwrist -7.96197
rhand 24.3367 33.5032
rfingers 7.12502
rthumb 48.5515 11.5519
lclavicle -4.29437e-014 -8.44835e-016
lhumerus -17.2848 -1.60131 62.7257
lradius 116.112
lwrist 15.8909
lhand -8.67639 34.9826
lfingers 7.12502
lthumb 17.2579 64.2363
rfemur -13.0905 13.9152 21.5968
rtibia 25.8053
rfoot -13.4585 30.6036
rtoes -3.26791
lfemur -24.1207 -19.7056 2.99909
ltibia 41.0596
lfoot -19.9919 -24.0856
ltoes -9.39848
652
root -1.07405 15.9223 4.08613 -544.804 -52.1716 189.623
lowerback -0.264356 -0.00528784 -1.69394
upperback -10.0293 -0.454797 3.42313
thorax -10.4933 -0.14718 4.71636
lowerneck -0.999291 1.69022 -5.92011
upperneck 13.8001 -0.735035 19.6292
head 4.23428 -0.0642184 7.14501
rclavicle -4.71865e-014 -7.06679e-014
rhumerus -7.62027 1.37366 -41.6865
rradius 102.813
rwrist -8.74763
rhand 24.652 34.6603
rfingers 7.12502
rthumb 48.8414 12.8499
lclavicle -4.71865e-014 -7.06679e-014
lhumerus -17.1049 -1.15216 61.9176
lradius 116.322
lwrist 18.8885
lhand -7.66157 35.8323
lfingers 7.12502
lthumb 18.2345 64.9976
rfemur -14.3677 13.861 19.2025
rtibia 26.6623
rfoot -12.7056 31.7325
rtoes -3.71599
lfemur -22.3138 -17.0571 -0.220185
ltibia 39.949
lfoot -21.3583 -22.5131
ltoes -7.62389
